# xmcd
#
# Track frame offsets: 
#        150
#        16310
#        32892
#        46970
#        62100
#        76237
#        92745
#        107852
#        122077
#        136695
#        153467
#        166147
#        180735
#        195997
#        209822
#        223302
#        241240
#        256187
#        270412
#        289200
#        302237
#        318900
#        331400
#
# Disc length: 4621 seconds
#
# Revision: 0
# Processed by: cddbd v1.5.1PL2 Copyright (c) Steve Scherf et al.
# Submitted via: ExactAudioCopy v0.95b4
#
DISCID=4a120b17
DTITLE=Lee Greenwood - The Definitive Collection
DYEAR=2006
DGENRE=Country
TTITLE0=It Turns Me Inside Out
TTITLE1=Ring On Her Finger, Time On Her Hands
TTITLE2=She's Lyin'
TTITLE3=Ain't No Trick (It Takes Magic)
TTITLE4=I.O.U.
TTITLE5=Somebody's Gonna Love you
TTITLE6=Going, Going, Gone
TTITLE7=God Bless The USA
TTITLE8=To Me - with Barbara Mandrell
TTITLE9=Fool's Gold
TTITLE10=You've Got A Good Love Comin'
TTITLE11=Dixie Road
TTITLE12=I Don't Mind The Thorns (If You're The Rose)
TTITLE13=Don't Underestimate My Love For You
TTITLE14=Hearts Aren't Made To Break (They're Made To Love)
TTITLE15=Didn't We
TTITLE16=Mornin' Ride
TTITLE17=Someone
TTITLE18=If There's Any Justice
TTITLE19=Touch And Go Crazy
TTITLE20=I Still Believe
TTITLE21=Holdin' A Good Hand
TTITLE22=We've Got It Made
EXTD=
EXTT0=
EXTT1=
EXTT2=
EXTT3=
EXTT4=
EXTT5=
EXTT6=
EXTT7=
EXTT8=
EXTT9=
EXTT10=
EXTT11=
EXTT12=
EXTT13=
EXTT14=
EXTT15=
EXTT16=
EXTT17=
EXTT18=
EXTT19=
EXTT20=
EXTT21=
EXTT22=
PLAYORDER=
